<svg xmlns="http://www.w3.org/2000/svg">
    <symbol id="close" viewBox="0 0 16 16">
        <path d="M15.648 2.052A1.2 1.2 0 0 0 13.953.358L8.005 6.305 2.052.352A1.2 1.2 0 0 0 .358 2.046l5.948 5.949-5.954 5.953a1.2 1.2 0 0 0 1.694 1.694l5.949-5.948 5.953 5.954a1.2 1.2 0 0 0 1.694-1.695L9.695 8.005l5.954-5.953Z"/>
    </symbol>
    <symbol id="menu" viewBox="0 0 18 21">
        <path d="M0 4.25C0 3.559.559 3 1.25 3h7.593c.691 0 1.25.559 1.25 1.25S9.534 5.5 8.843 5.5H1.25C.559 5.5 0 4.941 0 4.25ZM0 10.5c0-.691.559-1.25 1.25-1.25h15c.691 0 1.25.559 1.25 1.25s-.559 1.25-1.25 1.25h-15C.559 11.75 0 11.191 0 10.5ZM17.5 16.75c0 .691-.559 1.25-1.25 1.25h-15C.559 18 0 17.441 0 16.75s.559-1.25 1.25-1.25h15c.691 0 1.25.559 1.25 1.25Z"/>
    </symbol>
    <symbol id="search" viewBox="0 0 20 20">
        <path fill-rule="evenodd" clip-rule="evenodd" d="M12.6666 14C11.1697 15.158 9.28779 15.7024 7.40375 15.5224C5.5197 15.3424 3.77494 14.4516 2.52427 13.0311C1.2736 11.6106 0.610917 9.76705 0.670991 7.87539C0.731066 5.98372 1.50938 4.18595 2.84767 2.84767C4.18595 1.50938 5.98372 0.731066 7.87539 0.670991C9.76705 0.610917 11.6106 1.2736 13.0311 2.52427C14.4516 3.77494 15.3424 5.5197 15.5224 7.40375C15.7024 9.28779 15.158 11.1697 14 12.6666L19 17.6666C19.0875 17.7542 19.157 17.8581 19.2044 17.9725C19.2517 18.0869 19.2761 18.2095 19.2761 18.3333C19.2761 18.4571 19.2517 18.5797 19.2044 18.6941C19.157 18.8085 19.0875 18.9124 19 19C18.9124 19.0875 18.8085 19.157 18.6941 19.2044C18.5797 19.2517 18.4571 19.2761 18.3333 19.2761C18.2095 19.2761 18.0869 19.2517 17.9725 19.2044C17.8581 19.157 17.7542 19.0875 17.6666 19L12.6666 14ZM13.7778 8.11109C13.7778 9.58452 13.1924 10.9976 12.1506 12.0395C11.1087 13.0813 9.69563 13.6666 8.2222 13.6666C6.74878 13.6666 5.3357 13.0813 4.29383 12.0395C3.25196 10.9976 2.66665 9.58452 2.66665 8.11109C2.66665 6.63767 3.25196 5.22459 4.29383 4.18272C5.3357 3.14085 6.74878 2.55554 8.2222 2.55554C9.69563 2.55554 11.1087 3.14085 12.1506 4.18272C13.1924 5.22459 13.7778 6.63767 13.7778 8.11109Z"/>
    </symbol>
    <symbol id="cart" viewBox="0 0 20 20">
        <path fill-rule="evenodd" d="M9.243.058A3.908 3.908 0 0 0 7.16 1.224a3.251 3.251 0 0 0-.7 1.02c-.268.568-.334.87-.356 1.633l-.02.654H4.817c-1.086 0-1.288.01-1.402.063-.147.07-.354.287-.407.429-.02.05-.39 2.857-.821 6.236-.865 6.76-.852 6.628-.662 7.173a2.47 2.47 0 0 0 1.179 1.33c.524.255.045.24 7.398.229l6.676-.01.249-.093c.94-.352 1.568-1.234 1.568-2.201 0-.261-1.518-12.36-1.584-12.621-.036-.142-.241-.371-.41-.458-.142-.072-.235-.077-1.418-.077h-1.267l-.019-.654c-.014-.497-.039-.728-.101-.961a4.884 4.884 0 0 0-.606-1.29 5.381 5.381 0 0 0-.976-.958A5.107 5.107 0 0 0 10.99.112c-.4-.107-1.347-.136-1.747-.054ZM9.707 1.6c-.963.152-1.709.802-1.95 1.7a4.627 4.627 0 0 0-.088.733l-.025.498h4.711l-.024-.498a4.627 4.627 0 0 0-.087-.732c-.21-.78-.875-1.443-1.639-1.634-.312-.078-.66-.104-.898-.067ZM4.453 6.104l-.74 5.8c-.702 5.493-.738 5.8-.686 5.973a.75.75 0 0 0 .504.503c.292.087 12.646.087 12.938 0a.75.75 0 0 0 .504-.503c.052-.172.016-.48-.685-5.973-.408-3.185-.74-5.795-.74-5.8-.001-.006-2.497-.01-5.548-.01-3.05 0-5.547.004-5.547.01ZM6.53 7.719c-.178.091-.392.352-.423.516-.04.218.013.86.1 1.193.09.344.36.94.553 1.22.19.278.637.733.935.954.323.24.903.519 1.314.633.26.072.408.085.99.085.805 0 1.058-.054 1.696-.361a3.543 3.543 0 0 0 1.143-.838c.345-.364.485-.567.7-1.022.26-.547.338-.884.343-1.469.005-.478.002-.495-.103-.632-.198-.26-.324-.322-.657-.322-.263 0-.312.012-.437.107-.25.19-.305.306-.363.764-.067.522-.107.662-.284 1.001-.424.812-1.412 1.322-2.313 1.194-.748-.106-1.391-.531-1.737-1.15-.187-.335-.246-.533-.31-1.049-.059-.458-.125-.593-.382-.776-.167-.119-.575-.144-.765-.048Z" clip-rule="evenodd"/>
    </symbol>
    <symbol id="favorite" viewBox="0 0 20 20">
        <path d="m8.82 18.29-.097-.09-6.844-6.356A5.883 5.883 0 0 1 0 7.53v-.129c0-2.75 1.953-5.109 4.656-5.625A5.71 5.71 0 0 1 10 3.59c.164-.188.34-.36.527-.52a5.73 5.73 0 0 1 4.816-1.297A5.73 5.73 0 0 1 20 7.403v.128c0 1.637-.68 3.2-1.879 4.313l-6.844 6.355-.097.09a1.74 1.74 0 0 1-1.18.465 1.72 1.72 0 0 1-1.18-.465Zm.52-12.626a.205.205 0 0 1-.04-.043l-.695-.781-.003-.004a3.85 3.85 0 0 0-6.727 2.566v.13c0 1.113.465 2.179 1.281 2.937L10 16.824l6.844-6.355a4.012 4.012 0 0 0 1.281-2.938v-.129a3.851 3.851 0 0 0-6.723-2.566l-.004.004-.003.004-.696.781c-.011.016-.027.027-.039.043a.935.935 0 0 1-1.32 0v-.004Z"/>
    </symbol>
    <symbol id="favorite-fill" viewBox="0 0 18 15">
        <path d="M7.93828 14.5918L7.85039 14.5129L1.69102 8.93178C0.611719 7.95415 0 6.58202 0 5.14472V5.03152C0 2.61658 1.75781 0.544676 4.19062 0.0918751C5.57578 -0.168828 6.99258 0.14333 8.12109 0.91858C8.4375 1.13812 8.73281 1.39196 9 1.68354C9.14766 1.51888 9.30586 1.36795 9.47461 1.22731C9.60469 1.11754 9.73828 1.01463 9.87891 0.91858C11.0074 0.14333 12.4242 -0.168828 13.8094 0.0884449C16.2422 0.541246 18 2.61658 18 5.03152V5.14472C18 6.58202 17.3883 7.95415 16.309 8.93178L10.1496 14.5129L10.0617 14.5918C9.77344 14.8525 9.39375 15 9 15C8.60625 15 8.22656 14.8559 7.93828 14.5918ZM8.40586 3.50503C8.3918 3.49474 8.38125 3.48102 8.3707 3.4673L7.74492 2.78124L7.74141 2.77781C6.9293 1.88936 5.70234 1.48458 4.50703 1.70755C2.86875 2.01285 1.6875 3.40555 1.6875 5.03152V5.14472C1.6875 6.12236 2.10586 7.05883 2.84063 7.72431L9 13.3054L15.1594 7.72431C15.8941 7.05883 16.3125 6.12236 16.3125 5.14472V5.03152C16.3125 3.40898 15.1312 2.01285 13.4965 1.70755C12.3012 1.48458 11.0707 1.89279 10.2621 2.77781C10.2621 2.77781 10.2621 2.77781 10.2586 2.78124C10.2551 2.78467 10.2586 2.78124 10.2551 2.78467L9.6293 3.47073C9.61875 3.48445 9.60469 3.49474 9.59414 3.50846C9.43594 3.66283 9.22148 3.74859 9 3.74859C8.77852 3.74859 8.56406 3.66283 8.40586 3.50846V3.50503Z"/>
        <path d="M8.40586 3.50503C8.3918 3.49474 8.38125 3.48102 8.3707 3.4673L7.74492 2.78124L7.74141 2.77781C6.9293 1.88936 5.70234 1.48458 4.50703 1.70755C2.86875 2.01285 1.6875 3.40555 1.6875 5.03152V5.14472C1.6875 6.12236 2.10586 7.05883 2.84063 7.72431L9 13.3054L15.1594 7.72431C15.8941 7.05883 16.3125 6.12236 16.3125 5.14472V5.03152C16.3125 3.40898 15.1312 2.01285 13.4965 1.70755C12.3012 1.48458 11.0707 1.89279 10.2621 2.77781L10.2586 2.78124L10.2551 2.78467L9.6293 3.47073C9.61875 3.48445 9.60469 3.49474 9.59414 3.50846C9.43594 3.66283 9.22148 3.74859 9 3.74859C8.77852 3.74859 8.56406 3.66283 8.40586 3.50846V3.50503Z"/>
    </symbol>
    <symbol id="eye" viewBox="0 0 19 17">
        <path d="M9.5 2.656c-2.15 0-3.919.983-5.274 2.248-1.27 1.189-2.148 2.6-2.596 3.596.448.996 1.326 2.407 2.592 3.596 1.36 1.265 3.127 2.248 5.278 2.248 2.15 0 3.919-.983 5.274-2.248 1.27-1.189 2.148-2.6 2.597-3.596-.45-.996-1.326-2.407-2.593-3.596C13.418 3.64 11.65 2.656 9.5 2.656ZM3.147 3.74C4.7 2.284 6.835 1.063 9.5 1.063c2.665 0 4.8 1.221 6.353 2.676 1.544 1.444 2.576 3.167 3.068 4.353.109.262.109.554 0 .816-.492 1.186-1.524 2.912-3.068 4.353-1.553 1.455-3.688 2.677-6.353 2.677-2.665 0-4.8-1.222-6.353-2.677C1.603 11.821.57 10.094.082 8.908a1.062 1.062 0 0 1 0-.816C.571 6.906 1.603 5.18 3.147 3.739ZM9.5 11.156A2.647 2.647 0 0 0 12.139 8.5 2.647 2.647 0 0 0 9.5 5.844h-.066c.043.17.066.348.066.531a2.12 2.12 0 0 1-2.639 2.059V8.5A2.647 2.647 0 0 0 9.5 11.156Zm0-6.906c1.12 0 2.194.448 2.986 1.245A4.264 4.264 0 0 1 13.722 8.5a4.264 4.264 0 0 1-1.236 3.005A4.208 4.208 0 0 1 9.5 12.75a4.208 4.208 0 0 1-2.986-1.245A4.264 4.264 0 0 1 5.278 8.5c0-1.127.445-2.208 1.236-3.005A4.208 4.208 0 0 1 9.5 4.25Z"/>
    </symbol>
    <symbol id="login" viewBox="0 0 18 20">
        <path fill="#222" d="M8.75 10a5 5 0 1 0 0-10 5 5 0 0 0 0 10Zm-1.785 1.875A6.963 6.963 0 0 0 0 18.84C0 19.48.52 20 1.16 20h15.18c.64 0 1.16-.52 1.16-1.16a6.963 6.963 0 0 0-6.965-6.965h-3.57Z"/>
    </symbol>
    <symbol id="address" viewBox="0 0 17 17">
        <path d="M9.777 16.575c1.704-2.132 5.588-7.298 5.588-10.2A6.377 6.377 0 0 0 8.99 0a6.377 6.377 0 0 0-6.375 6.375c0 2.902 3.885 8.068 5.588 10.2a1.003 1.003 0 0 0 1.574 0ZM8.99 4.25a2.125 2.125 0 1 1 0 4.25 2.125 2.125 0 0 1 0-4.25Z"/>
    </symbol>
    <symbol id="address-empty" viewBox="0 0 19 19">
        <path d="M15.469 7.125a5.345 5.345 0 0 0-5.344-5.344 5.345 5.345 0 0 0-5.344 5.344c0 .46.167 1.173.568 2.123.39.92.943 1.937 1.577 2.965 1.058 1.714 2.282 3.37 3.199 4.55.92-1.18 2.145-2.836 3.199-4.55.634-1.028 1.187-2.045 1.577-2.965.4-.95.568-1.663.568-2.123Zm1.781 0c0 3.243-4.342 9.018-6.245 11.4a1.121 1.121 0 0 1-1.76 0C7.343 16.143 3 10.368 3 7.125A7.127 7.127 0 0 1 10.125 0a7.127 7.127 0 0 1 7.125 7.125Zm-5.938 0a1.187 1.187 0 1 0-2.374 0 1.187 1.187 0 0 0 2.374 0Zm-4.156 0a2.969 2.969 0 1 1 5.938 0 2.969 2.969 0 0 1-5.938 0Z"/>
    </symbol>
    <symbol id="phone" viewBox="0 0 17 17">
        <path d="M12.478 9.138a1.328 1.328 0 0 0-1.55.378l-1.103 1.348a10.18 10.18 0 0 1-3.69-3.689l1.346-1.099a1.323 1.323 0 0 0 .378-1.55L6.265.807A1.326 1.326 0 0 0 4.768.03L1.049.827C.44.957 0 1.497 0 2.125c0 7.677 5.817 13.999 13.285 14.792.325.033.65.06.982.073h.004c.202.007.401.013.604.013.627 0 1.169-.438 1.298-1.049l.797-3.719a1.326 1.326 0 0 0-.777-1.497l-3.719-1.594.004-.006Zm2.181 6.268C7.497 15.29 1.71 9.503 1.597 2.341l3.294-.707 1.428 3.333-1.192.976a1.594 1.594 0 0 0-.369 2.033 11.753 11.753 0 0 0 4.27 4.27 1.594 1.594 0 0 0 2.032-.37l.976-1.191 3.334 1.428-.71 3.293Z"/>
    </symbol>
    <symbol id="email" viewBox="0 0 17 17">
        <path d="M2.125 3.719a.533.533 0 0 0-.531.531v.734L7.32 9.685a1.857 1.857 0 0 0 2.361 0l5.724-4.701V4.25a.533.533 0 0 0-.531-.531H2.125Zm-.531 3.327v5.704c0 .292.239.531.531.531h12.75a.533.533 0 0 0 .531-.531V7.046l-4.715 3.871a3.453 3.453 0 0 1-4.382 0L1.594 7.046ZM0 4.25c0-1.172.953-2.125 2.125-2.125h12.75c1.172 0 2.125.953 2.125 2.125v8.5a2.127 2.127 0 0 1-2.125 2.125H2.125A2.127 2.127 0 0 1 0 12.75v-8.5Z"/>
    </symbol>
    <symbol id="time" viewBox="0 0 17 17">
        <path d="M15.406 8.5a6.907 6.907 0 1 1-13.813 0 6.907 6.907 0 0 1 13.813 0ZM0 8.5a8.5 8.5 0 1 0 17 0 8.5 8.5 0 0 0-17 0Zm7.703-4.516V8.5a.8.8 0 0 0 .355.664l3.188 2.125a.795.795 0 0 0 1.106-.222.794.794 0 0 0-.223-1.106L9.297 8.075v-4.09a.795.795 0 0 0-.797-.797.795.795 0 0 0-.797.796Z"/>
    </symbol>
    <symbol id="cards" viewBox="0 0 30 30">
        <path d="M4.3 9.081c0-.737-.052-1.473 0-2.2a2.883 2.883 0 0 1 2.89-2.676h3.938c.773.001 1.514.31 2.06.857.547.548.855 1.29.856 2.065.02 1.316.02 2.631 0 3.944a2.924 2.924 0 0 1-.852 2.044c-.54.543-1.273.85-2.039.857-1.307.02-2.618.02-3.932 0a2.919 2.919 0 0 1-2.064-.855 2.93 2.93 0 0 1-.857-2.066V9.08Zm4.867 2.957h1.9a.974.974 0 0 0 1.021-1.023V7.208a.974.974 0 0 0-1.021-1.023h-3.78A.974.974 0 0 0 6.24 7.208v3.781a.984.984 0 0 0 1.047 1.024l1.88.025ZM20.892 4.228c.742 0 1.484-.051 2.22 0A2.876 2.876 0 0 1 25.779 7.1c.027 1.33.027 2.659 0 3.988a2.913 2.913 0 0 1-2.921 2.883c-1.313.02-2.628.02-3.945 0a2.927 2.927 0 0 1-2.896-2.924V7.152a2.928 2.928 0 0 1 2.947-2.94h1.95l-.02.016Zm0 1.943h-1.908a.973.973 0 0 0-1.024 1.022v3.824a.966.966 0 0 0 1.024 1.023h3.832a.972.972 0 0 0 1.023-1.023V7.203a.977.977 0 0 0-1.023-1.022l-1.924-.01ZM9.173 15.967c.74 0 1.481-.051 2.216 0a2.878 2.878 0 0 1 2.655 2.882c.02 1.318.02 2.638 0 3.96a2.92 2.92 0 0 1-1.807 2.699c-.354.146-.735.22-1.118.219H7.203a2.924 2.924 0 0 1-2.926-2.954V18.9a2.936 2.936 0 0 1 1.819-2.734c.359-.148.744-.222 1.132-.22h1.945v.02Zm0 7.803h1.9a.97.97 0 0 0 1.02-1.022v-3.802a.965.965 0 0 0-1.02-1.022H7.294a.974.974 0 0 0-1.046 1.022v3.781a.977.977 0 0 0 1.046 1.022l1.88.02ZM20.913 15.967c.74 0 1.48-.051 2.215 0a2.878 2.878 0 0 1 2.655 2.882c.02 1.318.02 2.638 0 3.96a2.919 2.919 0 0 1-2.925 2.918h-3.916a2.924 2.924 0 0 1-2.926-2.954V18.9a2.937 2.937 0 0 1 1.819-2.734c.359-.148.744-.222 1.132-.22h1.946v.02Zm0 7.803h1.899a.97.97 0 0 0 1.021-1.022v-3.802a.967.967 0 0 0-1.021-1.022h-3.778a.974.974 0 0 0-1.047 1.022v3.781a.977.977 0 0 0 1.047 1.022l1.879.02Z"/>
    </symbol>
    <symbol id="list" viewBox="0 0 30 30">
        <path d="M6.18 4.262c.742 0 1.484-.051 2.22 0a2.876 2.876 0 0 1 2.666 2.873c.028 1.33.028 2.659 0 3.988a2.913 2.913 0 0 1-2.921 2.883c-1.313.02-2.628.02-3.945 0a2.928 2.928 0 0 1-2.896-2.924V7.186a2.927 2.927 0 0 1 2.947-2.94h1.95l-.02.016Zm0 1.943H4.272a.973.973 0 0 0-1.024 1.022v3.824a.965.965 0 0 0 1.024 1.023h3.832a.975.975 0 0 0 .96-.623.97.97 0 0 0 .063-.4V7.237a.976.976 0 0 0-1.023-1.022l-1.924-.01ZM6.18 16.001c.742 0 1.484-.051 2.22 0a2.876 2.876 0 0 1 2.666 2.873c.028 1.33.028 2.659 0 3.988a2.913 2.913 0 0 1-2.921 2.884c-1.313.02-2.628.02-3.945 0a2.927 2.927 0 0 1-2.896-2.925v-3.896a2.927 2.927 0 0 1 2.947-2.94h1.95l-.02.016Zm0 1.943H4.272a.972.972 0 0 0-1.024 1.022v3.825a.966.966 0 0 0 1.024 1.022h3.832a.972.972 0 0 0 1.023-1.022v-3.814a.976.976 0 0 0-1.023-1.023l-1.924-.01ZM21.241 8.045h-6.163a1.252 1.252 0 1 1 0-2.498h12.313a1.265 1.265 0 0 1 1.297 1.555 1.234 1.234 0 0 1-1.244.936H23.53l-2.29.007ZM21.274 10.542h6.117a1.246 1.246 0 0 1 .248 2.479H15.183a1.956 1.956 0 0 1-.516-.046 1.226 1.226 0 0 1-.887-1.396A1.213 1.213 0 0 1 15 10.55l6.274-.007ZM21.241 19.784h-6.163a1.253 1.253 0 1 1 0-2.498h12.313a1.264 1.264 0 0 1 1.297 1.555 1.235 1.235 0 0 1-1.244.936H23.53l-2.29.007ZM21.274 22.282h6.117a1.245 1.245 0 0 1 .248 2.478H15.183a1.956 1.956 0 0 1-.516-.046 1.226 1.226 0 0 1-.887-1.395A1.213 1.213 0 0 1 15 22.288l6.274-.006Z"/>
    </symbol>
    <symbol id="compare" viewBox="0 0 20 21">
        <path d="M8.125 8.622V2.875c0-1.07.688-1.756 1.76-1.756h7.73c1.074 0 1.76.683 1.76 1.756v7.735c0 1.07-.689 1.765-1.755 1.765h-5.745v5.745c0 1.065-.693 1.755-1.761 1.755H2.38c-1.067 0-1.758-.692-1.758-1.76V10.38c0-1.072.685-1.759 1.755-1.76h5.488l.26.002Zm2.5 5.628v-3.886c0-.357-.132-.489-.479-.489H2.355c-.353 0-.483.13-.483.484v7.793c0 .348.134.479.487.479h7.772c.364 0 .492-.129.492-.494.002-1.297.002-2.593.002-3.887Zm1.25-3.125h5.74c.388 0 .51-.123.51-.516V2.877c0-.382-.124-.508-.499-.508h-7.75c-.38 0-.502.123-.502.504l.001 5.546c0 .063.006.126.01.203.291 0 .572-.003.848 0a1.635 1.635 0 0 1 1.642 1.638v.865ZM5.059 2.534c-.044-.014-.086-.029-.13-.04-.391-.1-.6-.416-.516-.785.078-.343.425-.548.805-.462.437.098.874.2 1.31.31.434.108.676.463.62.904-.042.322-.244.517-.53.648a8.128 8.128 0 0 0-2.845 2.174A8.347 8.347 0 0 0 2.58 7.177c-.14.302-.387.45-.66.413-.434-.059-.692-.492-.488-.885.28-.542.57-1.084.912-1.587.682-1.003 1.561-1.815 2.578-2.47.038-.025.076-.053.113-.077.01-.006.016-.021.023-.037ZM14.963 18.485c.102.025.176.04.248.061a.625.625 0 0 1 .446.692c-.052.309-.316.552-.63.52-.313-.031-.613-.108-.918-.17-.217-.043-.432-.094-.648-.14-.377-.082-.616-.325-.661-.674-.045-.349.115-.656.469-.817a8.378 8.378 0 0 0 2.79-2.027 8.131 8.131 0 0 0 1.246-1.834c.104-.209.26-.361.498-.393a.594.594 0 0 1 .597.252c.145.203.17.43.047.644-.282.489-.554.99-.88 1.448-.656.928-1.482 1.69-2.433 2.313-.052.035-.1.074-.171.125Z"/>
    </symbol>
    <symbol id="compare-fill" viewBox="0 0 20 20">
        <path d="M8.125 8.122V2.375c0-1.07.688-1.756 1.759-1.756h7.732c1.073 0 1.759.683 1.759 1.756v7.735c0 1.07-.69 1.765-1.755 1.765h-5.745v5.745c0 1.065-.693 1.755-1.761 1.755H2.38c-1.067 0-1.758-.692-1.758-1.76V9.88c0-1.072.685-1.759 1.755-1.76h5.488l.26.002Zm2.5 5.628V9.864c0-.357-.132-.489-.48-.489h-7.79c-.353 0-.483.13-.483.484v7.793c0 .348.134.479.487.479h7.772c.364 0 .492-.129.492-.494l.002-3.887Zm1.25-3.125h5.74c.388 0 .51-.123.51-.516V2.377c0-.382-.124-.508-.499-.508H9.875c-.38 0-.502.123-.502.504l.002 5.546c0 .063.006.126.01.203.291 0 .572-.003.848 0a1.636 1.636 0 0 1 1.642 1.638v.865Z"/>
        <path d="M11.875 10.625h5.74c.388 0 .51-.123.51-.516V2.377c0-.382-.124-.508-.499-.508H9.875c-.38 0-.502.123-.502.504l.002 5.546c0 .063.006.126.01.203.291 0 .572-.003.848 0a1.636 1.636 0 0 1 1.642 1.638v.865ZM10.625 13.75V9.864c0-.357-.132-.489-.48-.489h-7.79c-.353 0-.483.13-.483.484v7.793c0 .348.134.479.487.479h7.772c.364 0 .492-.129.492-.494l.002-3.887ZM5.059 2.034c-.044-.014-.087-.029-.13-.04-.392-.1-.6-.416-.516-.785.078-.343.425-.548.805-.462.437.098.874.2 1.31.31.433.108.676.463.619.904-.041.322-.243.517-.528.648a8.128 8.128 0 0 0-2.847 2.174 8.346 8.346 0 0 0-1.191 1.894c-.14.302-.387.45-.66.413-.435-.059-.692-.492-.488-.885.28-.542.57-1.084.912-1.587.682-1.003 1.561-1.815 2.578-2.47.038-.025.076-.053.113-.077.01-.006.016-.021.023-.037ZM14.963 17.985c.102.025.176.04.248.061a.625.625 0 0 1 .446.692c-.052.309-.316.552-.63.52-.313-.031-.613-.108-.918-.17-.217-.043-.432-.094-.648-.14-.377-.082-.616-.325-.661-.674-.045-.349.115-.656.469-.817a8.378 8.378 0 0 0 2.79-2.027 8.131 8.131 0 0 0 1.246-1.834c.104-.209.26-.361.498-.393a.594.594 0 0 1 .597.252c.145.203.17.43.047.644-.282.489-.554.99-.88 1.448-.656.928-1.482 1.69-2.433 2.313-.052.035-.1.074-.171.125Z"/>
    </symbol>
    <symbol id="review" viewBox="0 0 20 21">
        <path d="M10.01 2.449h7.208c1.041 0 1.868.635 2.097 1.615.043.198.063.4.06.603.004 3.106.004 6.212 0 9.318 0 1.317-.885 2.206-2.207 2.207-2.872 0-5.743-.002-8.614-.005-.186 0-.29.053-.384.215-.298.52-.64 1.013-.92 1.54-.398.745-1.342.765-1.756.032-.315-.56-.69-1.087-1.033-1.632a.254.254 0 0 0-.249-.138 62.22 62.22 0 0 1-1.465 0c-1.215-.006-2.122-.912-2.122-2.127-.003-3.165-.003-6.33 0-9.495 0-1.224.911-2.13 2.141-2.132 2.414-.004 4.829-.005 7.244-.001ZM6.385 17.017c.301-.495.6-.96.871-1.44.252-.445.615-.63 1.122-.625 2.949.008 5.898.004 8.848.004.546 0 .898-.345.898-.886V4.576c0-.517-.355-.869-.872-.874-.3-.004-.6 0-.899 0H2.8c-.573 0-.927.34-.927.899v9.474c0 .53.352.879.885.88h1.738a1.003 1.003 0 0 1 .886.48c.117.18.23.364.345.543l.66 1.04Z"/>
        <path d="M10 10.344h3.047c.417 0 .7.252.703.62.002.368-.284.63-.696.63H6.94c-.412 0-.696-.26-.693-.631.003-.37.285-.62.704-.62 1.015-.002 2.031-.002 3.048 0ZM10 8.123c-1.035 0-2.07.004-3.105 0-.507-.002-.808-.507-.561-.93.135-.232.35-.319.608-.319h5.994c.072 0 .144 0 .215.005.358.034.609.308.597.648-.012.34-.28.594-.644.595-1.035.004-2.07.001-3.104.001Z"/>
    </symbol>
    <symbol id="chevron" viewBox="0 0 5 8">
        <path fill="#222" d="M5 3.998a.487.487 0 0 0-.165-.362l-.002.002L.904.138a.563.563 0 0 0-.756.017.477.477 0 0 0 .018.706l3.094 2.76.002-.002a.487.487 0 0 1 .165.363.49.49 0 0 1-.165.362L.168 7.138a.477.477 0 0 0-.018.706.56.56 0 0 0 .757.017l3.928-3.5A.49.49 0 0 0 5 3.998Z"/>
    </symbol>
    <symbol id="file" viewBox="0 0 24 25">
        <path d="M2.533 10.238V6.362c.005-1.046.74-1.785 1.786-1.786 1.758-.004 3.515-.004 5.273 0a.484.484 0 0 0 .387-.162c.335-.35.68-.688 1.022-1.033a2.08 2.08 0 0 1 1.536-.631h8.67c1.221 0 2.103.875 2.096 2.1a7553.03 7553.03 0 0 1-.105 15.348c-.01 1.161-.904 2.052-2.06 2.052-6.132.004-12.263.004-18.395 0-1.152 0-2.04-.875-2.045-2.03-.01-2.648-.01-5.296 0-7.944.003-1.008.657-1.782 1.647-1.993.053-.014.106-.027.188-.045ZM11.95 20.75h9.09c.448 0 .657-.199.66-.633.036-5.068.07-10.137.105-15.205.003-.475-.188-.662-.67-.662h-8.529a.788.788 0 0 0-.605.25c-.43.442-.87.875-1.306 1.312a6663.31 6663.31 0 0 0-5.432 5.438c-.346.347-.742.527-1.235.511-.375-.012-.75 0-1.125 0-.54 0-.71.171-.71.717v7.557c0 .544.17.715.712.715h9.045ZM8.296 6.084c-.096-.004-.156-.009-.215-.009H4.383c-.3 0-.35.05-.35.357v3.604c0 .068.008.135.012.203.184-.03 3.334-3.114 4.251-4.155Z"/>
        <path d="M16.875 18.5h-1.453c-.46-.004-.797-.323-.797-.75s.33-.75.787-.75c.977-.004 1.953-.004 2.93 0 .452 0 .786.331.781.758-.004.416-.334.735-.776.74-.491.006-.983.002-1.472.002Z"/>
    </symbol>
    <symbol id="remove" viewBox="0 0 16 18">
        <path d="m5.864 1.389-.546.861h5.368l-.55-.861a.573.573 0 0 0-.486-.264H6.346a.577.577 0 0 0-.485.264h.003Zm5.243-.594.925 1.455H15.43c.314 0 .571.253.571.563 0 .309-.257.562-.571.562h-.572v11.813C14.857 16.74 13.58 18 12 18H4c-1.579 0-2.857-1.259-2.857-2.813V3.376H.57A.569.569 0 0 1 0 2.812c0-.309.257-.562.571-.562h3.397L4.893.795A1.72 1.72 0 0 1 6.346 0H9.65c.593 0 1.14.299 1.454.795h.003Zm-8.821 2.58v11.813c0 .931.768 1.687 1.714 1.687h8c.946 0 1.714-.756 1.714-1.688V3.376H2.286Zm2.857 2.813v7.875c0 .309-.257.562-.572.562A.569.569 0 0 1 4 14.062V6.189c0-.31.257-.563.571-.563.315 0 .572.253.572.563Zm3.428 0v7.875c0 .309-.257.562-.571.562a.569.569 0 0 1-.571-.563V6.189c0-.31.257-.563.571-.563.314 0 .571.253.571.563Zm3.429 0v7.875c0 .309-.257.562-.571.562a.569.569 0 0 1-.572-.563V6.189c0-.31.257-.563.572-.563.314 0 .571.253.571.563Z"/>
    </symbol>
    <symbol id="main" viewBox="0 0 23 22">
        <path d="M11.485 21.088H5.147c-1.565 0-2.898-.89-3.469-2.299a3.71 3.71 0 0 1-.268-1.403c0-2.816-.01-5.63.003-8.446.004-1.377.595-2.466 1.776-3.188a575.79 575.79 0 0 1 6.424-3.856c1.251-.736 2.541-.728 3.793.012a588.42 588.42 0 0 1 6.35 3.808c1.221.74 1.827 1.847 1.827 3.27.008 2.785.008 5.572 0 8.36-.004 1.877-1.238 3.354-3.078 3.688-.24.038-.483.056-.727.052-2.097.004-4.195.005-6.293.003Zm-.009-1.838h6.274c1.24 0 2-.755 2-1.989v-8.23c0-.771-.317-1.344-.98-1.74a1992.518 1992.518 0 0 1-6.274-3.766c-.684-.412-1.364-.416-2.047 0l-6.245 3.78c-.644.39-.96.954-.96 1.707.004 2.758.004 5.516 0 8.274 0 1.203.77 1.967 1.978 1.967l6.254-.003Z"/>
    </symbol>
    <symbol id="filter" viewBox="0 0 20 20">
        <path d="M9.903 5.417h7.462c.123-.006.247.005.367.031.404.104.645.482.598.91a.808.808 0 0 1-.781.713c-.47.011-.938.005-1.407.005-2.011.002-4.024.001-6.038 0-.14 0-.214.025-.26.178a3.308 3.308 0 0 1-3.156 2.324 3.318 3.318 0 0 1-3.196-2.33c-.045-.143-.11-.177-.245-.172-.234.01-.469.004-.703 0-.514-.007-.871-.347-.873-.826-.001-.48.355-.827.866-.834.234-.003.468-.01.703.003.149.008.208-.041.257-.185.402-1.172 1.202-1.937 2.409-2.227 1.698-.403 3.381.553 3.933 2.209l.064.2Zm-1.57.838A1.667 1.667 0 0 0 6.66 4.579 1.674 1.674 0 0 0 5 6.25a1.673 1.673 0 0 0 1.667 1.667 1.667 1.667 0 0 0 1.666-1.662ZM10.104 12.917a3.46 3.46 0 0 1 .774-1.417c1.701-1.858 4.786-1.224 5.602 1.16.073.214.162.284.379.264.227-.015.455-.015.683 0a.826.826 0 0 1 0 1.652c-.273.01-.547.012-.82 0-.136-.005-.168.06-.209.171-.448 1.275-1.329 2.063-2.668 2.292-1.605.272-3.19-.717-3.685-2.28l-.06-.18H2.639a1.443 1.443 0 0 1-.367-.032c-.404-.11-.642-.485-.593-.913a.82.82 0 0 1 .78-.711c.091-.005.183 0 .274 0h7.372v-.006Zm1.57.826a1.667 1.667 0 1 0 .486-1.176 1.667 1.667 0 0 0-.486 1.178v-.002Z"/>
    </symbol>
    <symbol id="download" viewBox="0 0 18 24">
        <path d="M15 22.5H3c-.83 0-1.5-.67-1.5-1.5V3c0-.83.67-1.5 1.5-1.5h6v5.25A2.25 2.25 0 0 0 11.25 9h5.25v12c0 .83-.67 1.5-1.5 1.5Zm-3.75-15a.752.752 0 0 1-.75-.75V1.523a.716.716 0 0 1 .347.197l5.433 5.433a.738.738 0 0 1 .197.347H11.25ZM3 0C1.345 0 0 1.345 0 3v18c0 1.655 1.345 3 3 3h12c1.655 0 3-1.345 3-3V7.683a2.25 2.25 0 0 0-.66-1.59L11.91.662A2.25 2.25 0 0 0 10.323 0H3Zm6.75 11.25A.752.752 0 0 0 9 10.5a.752.752 0 0 0-.75.75v5.69l-2.47-2.47a.753.753 0 0 0-1.06 0 .753.753 0 0 0 0 1.06l3.75 3.75c.29.29.77.29 1.06 0l3.75-3.75a.753.753 0 0 0 0-1.06.753.753 0 0 0-1.06 0l-2.47 2.47v-5.69Z"/>
    </symbol>
</svg>